<svg width="20" height="20" viewBox="0 0 20 20" fill="none" xmlns="http://www.w3.org/2000/svg">
<path d="M13.4688 4.09375V3.59375V3.4375C13.4688 3.2473 13.3152 3.09375 13.125 3.09375H12.9688H12.4688H7.03125H6.875C6.68479 3.09375 6.53125 3.2473 6.53125 3.4375V3.59375V4.5H6.125V3.4375C6.125 3.02419 6.46169 2.6875 6.875 2.6875H13.125C13.5383 2.6875 13.875 3.02419 13.875 3.4375V4.5H13.4688V4.09375ZM7.03125 5.5H7.53125H12.4688H12.9688H14.375H14.875H16.875C16.9446 5.5 17 5.55544 17 5.625V5.90625H16.1641H15.6871L15.6646 6.38266L15.1822 16.5975L15.1822 16.5977C15.1634 16.9989 14.8345 17.3125 14.4336 17.3125H5.56641C5.16753 17.3125 4.83655 16.997 4.81781 16.5977L4.8178 16.5975L4.33538 6.38266L4.31288 5.90625H3.83594H3V5.625C3 5.55544 3.05544 5.5 3.125 5.5H5.125H5.625H7.03125ZM14.2832 16.9062H14.7601L14.7826 16.4299L15.2553 6.42986L15.2801 5.90625H14.7559H5.24414H4.71995L4.7447 6.42986L5.21735 16.4299L5.23987 16.9062H5.7168H14.2832Z" fill="#4F596A" stroke="#4F596A"/>
</svg>
