<svg width="80" height="80" viewBox="0 0 80 80" fill="none" xmlns="http://www.w3.org/2000/svg">
<path d="M0 40C0 17.9086 17.9086 0 40 0V0C62.0914 0 80 17.9086 80 40V40C80 62.0914 62.0914 80 40 80V80C17.9086 80 0 62.0914 0 40V40Z" fill="white"/>
<g clip-path="url(#clip0)">
<path d="M50.6397 15.6118L49.3881 20.2532C59.4844 24.557 66.5768 34.6835 66.5768 46.4135C66.5768 62.1097 53.9773 74.8523 38.4574 74.8523C22.9375 74.9367 10.338 62.1941 10.338 46.4135C10.338 34.0084 18.2649 23.3755 29.1955 19.5781L31.1147 14.5148C17.0133 18.2279 6.66666 31.2236 6.66666 46.7511C6.66666 65.1477 21.1853 80 39.2084 80C57.2315 80 71.7501 65.1477 71.7501 46.7511C71.6667 32.4895 62.9054 20.3376 50.6397 15.6118Z" fill="#FF5F0B"/>
<path d="M62.5717 45.3165L59.6513 45.2321C59.5678 45.2321 59.4844 45.1477 59.4844 45.0633L60.2353 35.865C60.2353 35.7806 60.2353 35.6962 60.1519 35.6962C59.4009 35.2743 55.062 32.7426 47.2186 30.8017C47.1352 30.8017 47.0518 30.7173 47.0518 30.5485C47.2187 29.3671 47.3021 28.6076 47.3855 28.27C47.3855 28.1857 47.3021 28.1013 47.2186 28.0169C46.718 27.8481 45.1326 27.4262 43.2135 27.3418C43.1301 27.3418 42.9632 27.2574 43.0466 27.0886C43.5473 24.9789 45.6333 15.7806 46.0505 14.0928C46.0505 13.9241 45.967 13.8397 45.8836 13.8397L40.1262 14.346C39.9593 14.346 39.8759 14.2616 39.9593 14.0928L43.0466 0.253166C43.1301 1.30059e-06 42.7963 -0.0843869 42.6294 0.0843895L33.8682 18.5654C33.7848 18.7342 33.8682 18.903 34.0351 18.8186L40.0428 18.5654C40.2097 18.5654 40.2931 18.7342 40.2097 18.8186L37.8733 26.4979C37.8733 26.5823 37.7899 26.6667 37.7065 26.6667L34.0351 26.7511C33.9516 26.7511 33.8682 26.8354 33.8682 26.9198L33.7848 29.1983C33.7848 29.2827 33.7013 29.3671 33.6179 29.3671C32.3663 29.4515 24.6063 29.789 19.8502 31.3924C19.7668 31.3924 19.6833 31.4768 19.6833 31.5612L18.8489 40.5907C18.8489 40.6751 18.7655 40.7595 18.5986 40.7595L15.5948 40.5063C15.5113 40.5063 15.4279 40.5907 15.3444 40.6751L14.4266 48.8608C14.4266 48.9451 14.51 49.1139 14.5935 49.1139L17.5139 49.3671C17.5973 49.3671 17.6808 49.4515 17.6808 49.6203L17.0133 56.3713C17.0133 56.4557 17.0133 56.5401 17.0967 56.5401C18.5986 57.4684 36.288 67.6793 57.3984 61.097C57.4818 61.097 57.5653 61.0127 57.5653 60.9283C57.899 58.0591 58.1493 55.0211 58.2328 54.2616C58.2328 54.1772 58.3162 54.0928 58.4831 54.0928L61.5704 54.4304C61.6538 54.4304 61.7373 54.346 61.8207 54.2616L62.7385 45.8228C62.7385 45.4008 62.6551 45.3165 62.5717 45.3165ZM52.3919 56.1181C52.3919 56.1181 37.9568 60.1688 23.1878 53.1646C23.6885 47.9325 24.7732 35.865 24.7732 35.865C24.7732 35.865 39.9593 32.5738 54.0608 39.1561L52.3919 56.1181Z" fill="#FF5F0B"/>
<path d="M32.7835 42.0253C32.7835 42.0253 32.4497 41.9409 32.1994 42.0253C31.9491 42.0253 31.7822 42.1941 31.5319 42.2785C31.0312 42.5316 26.9427 44.0506 28.528 46.0759C29.279 46.8354 29.9465 46.9198 31.1147 46.2447C31.7822 45.8228 32.2828 45.7384 32.3663 45.7384C32.3663 45.4008 32.7835 42.0253 32.7835 42.0253Z" fill="#FF5F0B"/>
<path d="M32.7 42.0254C32.7 42.0254 33.0338 42.0254 33.2841 42.1098C33.5344 42.1942 33.7013 42.3629 33.8682 42.5317C34.2854 42.9537 37.9568 45.2321 35.9542 46.9199C35.1198 47.5106 34.3688 47.4262 33.3676 46.498C32.7835 45.9916 32.3663 45.7385 32.2828 45.7385C32.3663 45.4009 32.7 42.0254 32.7 42.0254Z" fill="#FF5F0B"/>
<path d="M45.383 43.3755C45.383 43.3755 45.0492 43.2911 44.7989 43.3755C44.5486 43.3755 44.3817 43.5443 44.1314 43.6287C43.6307 43.8818 39.5421 45.4008 41.1275 47.4262C41.8785 48.1856 42.546 48.27 43.7142 47.5949C44.3817 47.173 44.8823 47.0886 44.9658 47.0886C44.9658 46.751 45.383 43.3755 45.383 43.3755Z" fill="#FF5F0B"/>
<path d="M45.2995 43.3756C45.2995 43.3756 45.6333 43.3756 45.8836 43.46C46.1339 43.5444 46.3008 43.7132 46.4677 43.8819C46.8849 44.3039 50.5563 46.5824 48.5537 48.2701C47.7193 48.8608 46.9683 48.7765 45.967 47.8482C45.383 47.3419 44.9658 47.0887 44.8823 47.0887C44.9658 46.7511 45.2995 43.3756 45.2995 43.3756Z" fill="#FF5F0B"/>
<path d="M16.5126 67.8481C16.5126 67.8481 35.7873 60.0844 56.5639 71.8988C50.139 75.3587 43.881 77.2152 43.881 77.2152L26.0248 74.346L18.098 70.0422L16.5126 67.8481Z" fill="#FF5F0B"/>
</g>
<defs>
<clipPath id="clip0">
<rect width="65" height="80" fill="white" transform="translate(6.66666)"/>
</clipPath>
</defs>
</svg>
